<?xml version="1.0" standalone="no"?>
<!DOCTYPE svg PUBLIC "-//W3C//DTD SVG 20010904//EN"
 "http://www.w3.org/TR/2001/REC-SVG-20010904/DTD/svg10.dtd">
<svg version="1.0" xmlns="http://www.w3.org/2000/svg"
 width="1051.000000pt" height="962.000000pt" viewBox="0 0 1051.000000 962.000000"
 preserveAspectRatio="xMidYMid meet">

<g transform="translate(0.000000,962.000000) scale(0.100000,-0.100000)"
fill="#000000" stroke="none">
<path d="M5235 9606 c-87 -18 -138 -36 -223 -81 -148 -78 -225 -162 -265 -290
-32 -102 -31 -299 2 -405 36 -116 60 -157 463 -805 153 -245 480 -772 693
-1115 87 -140 197 -318 245 -395 288 -464 752 -1212 1242 -2005 287 -463 1029
-1663 1223 -1975 61 -99 240 -387 397 -640 157 -253 377 -608 490 -790 113
-181 253 -409 313 -505 108 -175 143 -226 129 -185 -6 16 -267 594 -477 1055
-97 214 -166 366 -488 1076 -199 440 -382 844 -406 899 -25 55 -78 172 -118
260 -40 88 -193 426 -340 750 -147 325 -387 853 -533 1175 -409 903 -1092
2405 -1277 2810 -92 201 -198 435 -237 520 -149 334 -241 461 -409 570 -116
75 -280 104 -424 76z"/>
<path d="M4475 8649 c-59 -123 -151 -311 -203 -419 -169 -350 -497 -1026 -835
-1720 -143 -294 -329 -679 -415 -855 -85 -176 -195 -403 -244 -505 -50 -102
-121 -248 -158 -325 -37 -77 -111 -230 -165 -340 -53 -110 -125 -258 -160
-330 -34 -71 -145 -299 -245 -505 -100 -206 -250 -514 -333 -685 -181 -375
-278 -575 -647 -1335 -89 -184 -195 -402 -235 -485 -40 -82 -123 -253 -185
-380 -159 -325 -203 -422 -187 -405 14 14 139 201 421 630 70 107 205 312 299
455 95 143 242 366 326 495 85 129 245 372 356 540 110 168 266 404 345 525
80 121 226 342 325 492 99 150 284 430 410 623 724 1102 1393 2118 1809 2748
449 679 516 783 516 806 0 24 -398 687 -533 888 -74 111 -97 157 -146 291 -5
14 -37 -43 -116 -204z"/>
<path d="M920 4355 c509 -509 927 -925 930 -925 3 0 37 57 76 127 l70 126
-100 95 c-56 52 -417 412 -803 799 l-703 703 -197 0 -198 0 925 -925z"/>
<path d="M601 5243 c34 -37 366 -376 859 -878 146 -148 335 -341 420 -428
l155 -158 72 148 c39 81 139 287 223 457 l151 310 -278 279 c-153 153 -290
285 -305 293 -23 12 -132 14 -679 14 l-653 0 35 -37z"/>
<path d="M8655 5268 c-11 -7 -83 -77 -160 -157 -77 -81 -199 -207 -271 -281
-72 -74 -134 -140 -138 -147 -3 -7 59 -153 142 -330 82 -175 180 -385 218
-466 l69 -148 139 143 c186 191 753 765 1100 1116 l281 282 -680 -1 c-478 0
-686 -4 -700 -11z"/>
<path d="M10174 5251 c-21 -16 -393 -384 -827 -818 l-787 -788 47 -107 c27
-59 50 -107 53 -108 3 0 421 416 930 925 l925 925 -151 0 c-151 0 -151 0 -190
-29z"/>
<path d="M7230 3863 c-296 -301 -660 -668 -1488 -1505 -249 -252 -456 -458
-459 -458 -4 0 -313 305 -688 678 -1008 1005 -1539 1531 -1549 1534 -5 2 -132
-181 -283 -406 l-275 -409 409 -411 c1008 -1012 1794 -1804 2065 -2079 l293
-299 1315 1320 c723 725 1352 1357 1398 1403 l82 85 -132 216 c-73 119 -189
309 -258 422 -69 113 -128 206 -131 206 -3 0 -138 -134 -299 -297z"/>
<path d="M5832 3970 c0 -14 2 -19 5 -12 2 6 2 18 0 25 -3 6 -5 1 -5 -13z"/>
<path d="M6710 1788 c-1178 -1181 -1420 -1418 -1442 -1418 -33 0 17 -48 -878
860 -1265 1284 -1442 1463 -1694 1713 -137 136 -253 247 -257 247 -4 0 -42
-48 -83 -107 l-77 -107 640 -641 c352 -352 1019 -1019 1481 -1483 463 -464
845 -842 850 -840 5 2 581 572 1281 1268 700 696 1373 1363 1496 1484 122 120
223 222 223 227 0 4 -28 54 -62 111 l-63 103 -1415 -1417z"/>
</g>
</svg>
